<svg xmlns="http://www.w3.org/2000/svg" style="display:none">
<symbol id="bx-alert-octagon" viewBox="0 0 24 24"><path d="M11 7h2v6h-2zm0 8h2v2h-2z"/><path d="M16.71 2.29A1 1 0 0 0 16 2H8c-.27 0-.52.11-.71.29l-5 5A1 1 0 0 0 2 8v8c0 .27.11.52.29.71l5 5c.19.19.44.29.71.29h8c.27 0 .52-.11.71-.29l5-5A1 1 0 0 0 22 16V8c0-.27-.11-.52-.29-.71zM20 15.58l-4.41 4.41H8.42l-4.41-4.41V8.41L8.42 4h7.17L20 8.41z"/></symbol>
<symbol id="bx-arrow-right" viewBox="0 0 24 24"><path d="M6 13h6v4l6-5-6-5v4H6z"/></symbol>
<symbol id="bx-menu" viewBox="0 0 24 24"><path d="M4 6h16v2H4zm0 5h16v2H4zm0 5h16v2H4z"/></symbol>
<symbol id="bx-x" viewBox="0 0 24 24"><path d="m7.76 14.83-2.83 2.83 1.41 1.41 2.83-2.83 2.12-2.12.71-.71.71.71 1.41 1.42 3.54 3.53 1.41-1.41-3.53-3.54-1.42-1.41-.71-.71 5.66-5.66-1.41-1.41L12 10.59 6.34 4.93 4.93 6.34 10.59 12l-.71.71z"/></symbol>
<symbol id="bxs-arrow-to-top-stroke" viewBox="0 0 24 24"><path d="M6 4h12v2H6zm6 3.59-6.71 6.7 1.42 1.42 4.29-4.3V20h2v-8.59l4.29 4.3 1.42-1.42z"/></symbol>
<symbol id="bxs-bullseye" viewBox="0 0 24 24"><path d="M12 18c3.31 0 6-2.69 6-6s-2.69-6-6-6-6 2.69-6 6 2.69 6 6 6m0-10c2.21 0 4 1.79 4 4s-1.79 4-4 4-4-1.79-4-4 1.79-4 4-4"/><path d="M12 22c5.42 0 10-4.58 10-10S17.42 2 12 2 2 6.58 2 12s4.58 10 10 10m0-18c4.34 0 8 3.66 8 8s-3.66 8-8 8-8-3.66-8-8 3.66-8 8-8"/><path d="M12 10a2 2 0 1 0 0 4 2 2 0 1 0 0-4"/></symbol>
<symbol id="bxs-currency-note" viewBox="0 0 24 24"><path d="M21 4H3c-.55 0-1 .45-1 1v14c0 .55.45 1 1 1h18c.55 0 1-.45 1-1V5c0-.55-.45-1-1-1m-1 11c-1.66 0-3 1.34-3 3H7c0-1.66-1.34-3-3-3V9c1.66 0 3-1.34 3-3h10c0 1.66 1.34 3 3 3z"/><path d="M12 8a4 4 0 1 0 0 8 4 4 0 1 0 0-8"/></symbol>
<symbol id="bxs-envelope" viewBox="0 0 24 24"><path d="M20 4H4c-1.1 0-2 .9-2 2v.25l10 7.5 10-7.5V6c0-1.1-.9-2-2-2"/><path d="M12 16c-.21 0-.42-.07-.6-.2L2 8.75V18c0 1.1.9 2 2 2h16c1.1 0 2-.9 2-2V8.75l-9.4 7.05c-.18.13-.39.2-.6.2"/></symbol>
<symbol id="bxs-map" viewBox="0 0 24 24"><path d="m21.51 6.14-5-3a.99.99 0 0 0-.87-.08L8.09 5.89 3.51 3.14a.99.99 0 0 0-1.01-.01c-.31.18-.51.51-.51.87v13c0 .35.18.68.49.86l5 3c.26.16.58.19.87.08l7.55-2.83 4.59 2.75c.16.1.34.14.51.14s.34-.04.49-.13c.31-.18.51-.51.51-.87V7a.99.99 0 0 0-.49-.86M15 16.3l-6 2.25V7.69l6-2.25z"/></symbol>
<symbol id="bxs-message-edit" viewBox="0 0 24 24"><path d="M20 3H4c-1.1 0-2 .9-2 2v12c0 1.1.9 2 2 2h3v2c0 .36.19.69.51.87.15.09.32.13.49.13s.36-.05.51-.14L13.27 19h6.72c1.1 0 2-.9 2-2V5c0-1.1-.9-2-2-2Zm-7 9-3 3H8v-2l3-3 1.15-1.15 2 2zm1.85-1.85-2-2L14 7l1 1 1 1z"/></symbol>
<symbol id="bxs-phone" viewBox="0 0 24 24"><path d="M18.41 22h.37c.31-.01.6-.17.78-.43l2.27-3.27c.15-.22.21-.49.16-.76a1 1 0 0 0-.43-.65l-4.91-3.27c-.41-.27-.96-.21-1.29.15l-1.88 2.03c-.76-.45-2.03-1.26-3.03-2.26s-1.81-2.27-2.26-3.02l2.03-1.88c.36-.33.43-.88.15-1.29L7.1 2.44c-.15-.22-.38-.38-.64-.43-.27-.05-.54 0-.76.16L2.43 4.43c-.26.18-.42.47-.43.78-.03.71-.16 7.04 4.79 11.98 4.46 4.46 10.04 4.8 11.62 4.8Z"/></symbol>
<symbol id="bxs-rocket" viewBox="0 0 24 24"><path d="M5 16c-2 1-2 5-2 5s3 0 5-2zM21 2h-3.69c-2.4 0-4.66.94-6.36 2.64L8.69 6.9a8.4 8.4 0 0 0-6.24 1.27c-.25.17-.41.44-.44.73s.08.59.29.81l12 12c.2.2.45.29.71.29s.51-.1.71-.29c1.9-1.9 1.6-5.08 1.38-6.38l2.28-2.28c1.7-1.7 2.64-3.96 2.64-6.36V3c0-.55-.45-1-1-1Zm-3.59 7.41c-.78.78-2.05.78-2.83 0s-.78-2.05 0-2.83 2.05-.78 2.83 0 .78 2.05 0 2.83"/></symbol>
<symbol id="bxs-star" viewBox="0 0 24 24"><path d="m6.87 14.33-1.83 6.4c-.12.4.03.84.37 1.08.34.25.8.26 1.14.02L12 18.2l5.45 3.63a.99.99 0 0 0 1.14-.02c.34-.25.49-.68.37-1.08l-1.83-6.4 4.54-4.08c.3-.27.41-.69.28-1.06-.13-.38-.47-.64-.87-.68l-5.7-.45-2.47-5.46a.998.998 0 0 0-1.82 0L8.62 8.06l-5.7.45c-.4.03-.74.3-.87.68s-.02.8.28 1.06z"/></symbol>
<symbol id="bxs-user-id-card" viewBox="0 0 24 24"><path d="M20 4H4c-1.1 0-2 .9-2 2v12c0 1.1.9 2 2 2h16c1.1 0 2-.9 2-2V6c0-1.1-.9-2-2-2M9 8c1.15 0 2 .85 2 2s-.85 2-2 2-2-.85-2-2 .85-2 2-2m-3 8c0-1.66 1.34-3 3-3s3 1.34 3 3zm12-1h-4v-2h4zm0-4h-5V9h5z"/></symbol>
<symbol id="bxs-user" viewBox="0 0 24 24"><path d="M12 2a5 5 0 1 0 0 10 5 5 0 1 0 0-10M4 22h16c.55 0 1-.45 1-1v-1c0-3.86-3.14-7-7-7h-4c-3.86 0-7 3.14-7 7v1c0 .55.45 1 1 1"/></symbol>
</svg>